HIERARCHY
ROOT Hips
{
	OFFSET -0.001795 -0.223333 0.028219
	CHANNELS 6 Xposition Yposition Zposition Zrotation Yrotation Xrotation 
	JOINT LeftUpLeg
	{
		OFFSET 0.069520 -0.091406 -0.006815
		CHANNELS 3 Zrotation Yrotation Xrotation
		JOINT LeftLeg
		{
			OFFSET 0.034277 -0.375199 -0.004496
			CHANNELS 3 Zrotation Yrotation Xrotation
			JOINT LeftFoot
			{
				OFFSET -0.013596 -0.397961 -0.043693
				CHANNELS 3 Zrotation Yrotation Xrotation
				JOINT LeftToe
				{
					OFFSET 0.026358 -0.055791 0.119288
					CHANNELS 3 Zrotation Yrotation Xrotation
					End Site
					{
						OFFSET 0.000000 0.000000 0.000000
					}
				}
			}
		}
	}
	JOINT RightUpLeg
	{
		OFFSET -0.067670 -0.090522 -0.004320
		CHANNELS 3 Zrotation Yrotation Xrotation
		JOINT RightLeg
		{
			OFFSET -0.038290 -0.382569 -0.008850
			CHANNELS 3 Zrotation Yrotation Xrotation
			JOINT RightFoot
			{
				OFFSET 0.015774 -0.398415 -0.042312
				CHANNELS 3 Zrotation Yrotation Xrotation
				JOINT RightToe
				{
					OFFSET -0.025372 -0.048144 0.123348
					CHANNELS 3 Zrotation Yrotation Xrotation
					End Site
					{
						OFFSET 0.000000 0.000000 0.000000
					}
				}
			}
		}
	}
	JOINT Spine
	{
		OFFSET -0.002533 0.108963 -0.026696
		CHANNELS 3 Zrotation Yrotation Xrotation
		JOINT Spine1
		{
			OFFSET 0.005487 0.135180 0.001092
			CHANNELS 3 Zrotation Yrotation Xrotation
			JOINT Spine2
			{
				OFFSET 0.001457 0.052922 0.025425
				CHANNELS 3 Zrotation Yrotation Xrotation
				JOINT Neck
				{
					OFFSET -0.002778 0.213870 -0.042857
					CHANNELS 3 Zrotation Yrotation Xrotation
					JOINT Head
					{
						OFFSET 0.005152 0.064970 0.051349
						CHANNELS 3 Zrotation Yrotation Xrotation
						End Site
						{
							OFFSET 0.000000 0.000000 0.000000
						}
					}
				}
				JOINT LeftShoulder
				{
					OFFSET 0.078845 0.121749 -0.034090
					CHANNELS 3 Zrotation Yrotation Xrotation
					JOINT LeftArm
					{
						OFFSET 0.090977 0.030469 -0.008868
						CHANNELS 3 Zrotation Yrotation Xrotation
						JOINT LeftForeArm
						{
							OFFSET 0.259612 -0.012772 -0.027456
							CHANNELS 3 Zrotation Yrotation Xrotation
							JOINT LeftHand
							{
								OFFSET 0.249234 0.008986 -0.001171
								CHANNELS 3 Zrotation Yrotation Xrotation
								End Site
								{
									OFFSET 0.000000 0.000000 0.000000
								}
							}
						}
					}
				}
				JOINT RightShoulder
				{
					OFFSET -0.081759 0.118833 -0.038615
					CHANNELS 3 Zrotation Yrotation Xrotation
					JOINT RightArm
					{
						OFFSET -0.096012 0.032551 -0.009143
						CHANNELS 3 Zrotation Yrotation Xrotation
						JOINT RightForeArm
						{
							OFFSET -0.253742 -0.013329 -0.021401
							CHANNELS 3 Zrotation Yrotation Xrotation
							JOINT RightHand
							{
								OFFSET -0.255298 0.007772 -0.005559
								CHANNELS 3 Zrotation Yrotation Xrotation
								End Site
								{
									OFFSET 0.000000 0.000000 0.000000
								}
							}
						}
					}
				}
			}
		}
	}
}
MOTION
Frames: 10
Frame Time: 0.050000
0.000000 0.911060 0.000000 0.810961 1.471505 -2.808285 -7.765113 -1.098437 -7.134811 -3.854496 0.349231 18.337600 1.021933 -0.928304 -6.226876 0.000000 0.000000 0.000000 -7.597086 0.727188 -20.056526 6.900494 -2.572494 56.832846 -5.688682 -13.806305 -1.852135 0.000000 0.000000 0.000000 3.514103 -1.133309 15.517039 1.112743 0.258757 -20.733604 -1.792368 0.897897 23.797686 3.070433 0.003392 -24.692440 0.000000 0.000000 0.000000 -28.067803 -3.371168 -0.431832 -47.406536 -6.781411 -4.806327 -5.650393 -32.333836 3.185573 0.000000 0.000000 0.000000 24.940666 2.206600 0.397921 50.190954 5.745541 -4.809088 -3.629620 30.483687 0.650359 0.000000 0.000000 0.000000 
0.001529 0.909531 0.017965 1.049992 4.786667 -5.446896 -8.778860 -0.607644 -3.698830 -2.392650 -0.263190 19.990833 0.263555 -3.754008 -7.184788 0.000000 0.000000 0.000000 -8.378281 0.395819 -23.126129 6.164068 -3.286693 58.984029 -5.946697 -14.537619 -0.706201 0.000000 0.000000 0.000000 3.276110 -1.422048 18.826102 1.242595 0.309669 -20.900801 -2.480062 -0.341062 24.214227 2.460702 0.605965 -26.513773 0.000000 0.000000 0.000000 -27.171612 -2.708013 -1.051765 -48.078543 -7.351811 -4.637475 -5.229586 -33.078911 3.104620 0.000000 0.000000 0.000000 24.342329 3.223462 1.322094 51.454768 5.584984 -5.093891 -3.091972 30.881946 0.864192 0.000000 0.000000 0.000000 
0.002981 0.909312 0.036854 0.583644 6.973722 -6.976131 -7.410525 -0.148091 -0.977576 -3.361525 -0.134527 20.518382 -0.551530 -6.284532 -7.482506 0.000000 0.000000 0.000000 -6.233314 0.731649 -25.945448 2.024663 -0.937203 55.205262 -5.359908 -13.156364 0.220632 0.000000 0.000000 0.000000 2.566075 -1.494038 20.216170 1.758056 0.234362 -21.439451 -2.270395 -0.451354 25.230136 1.302506 1.516617 -27.502547 0.000000 0.000000 0.000000 -27.507759 -3.122791 -1.226591 -47.720008 -8.047067 -4.324322 -5.647154 -32.532317 3.086972 0.000000 0.000000 0.000000 24.214199 2.687685 1.454702 51.630203 5.306756 -5.484966 -3.937481 32.629454 0.850393 0.000000 0.000000 0.000000 
0.004686 0.907234 0.056259 0.029617 9.700949 -6.858453 -7.212675 -0.035046 -0.375049 -2.046381 -0.734677 21.697469 -0.985917 -8.766858 -8.675552 0.000000 0.000000 0.000000 -6.162822 0.528971 -28.773816 -0.162748 0.003043 45.891244 -2.559865 -7.376582 4.499333 0.000000 0.000000 0.000000 2.764003 -1.583871 19.676659 2.130511 0.212803 -21.793014 -2.296538 -1.608205 25.760123 0.412384 2.059850 -26.973649 0.000000 0.000000 0.000000 -27.924267 -3.374398 -1.335043 -48.304528 -8.829545 -4.016430 -4.236328 -30.994209 2.511125 0.000000 0.000000 0.000000 22.775143 3.123116 1.903647 53.772334 6.240009 -5.252887 -4.909668 31.781790 0.643516 0.000000 0.000000 0.000000 
0.006222 0.905286 0.076919 -0.371991 13.396469 -6.224410 -6.022545 0.214759 1.237424 -1.870643 -0.878128 20.217746 -1.816850 -12.929411 -10.038565 0.000000 0.000000 0.000000 -6.369150 0.097839 -29.361502 -0.905898 0.175434 32.734307 -0.374528 -2.698283 5.926178 0.000000 0.000000 0.000000 2.629950 -1.541460 18.249527 2.079371 0.325787 -22.136359 -2.298335 -3.542945 26.644874 -0.513857 2.623484 -26.826572 0.000000 0.000000 0.000000 -26.525337 -3.963935 -0.951683 -50.954605 -10.491205 -3.589509 -2.667245 -28.524602 1.912846 0.000000 0.000000 0.000000 21.335550 2.506128 1.698231 55.301370 6.604897 -5.217788 -4.133725 30.433924 0.855825 0.000000 0.000000 0.000000 
0.007883 0.903155 0.099264 -0.186397 17.269350 -5.247492 -5.687922 0.379940 2.456566 -0.926208 -1.184829 19.016800 -2.656408 -17.031806 -10.976531 0.000000 0.000000 0.000000 -6.499932 -0.241829 -27.429633 -0.366933 0.143162 16.686727 4.286665 5.911536 9.768253 0.000000 0.000000 0.000000 2.043434 -1.434572 17.133086 1.553937 0.584764 -23.449680 -2.094358 -4.993758 27.692175 -0.769811 2.979042 -28.204586 0.000000 0.000000 0.000000 -27.058925 -3.485081 -1.684937 -51.955905 -11.886353 -3.044922 -0.625587 -27.105788 1.305095 0.000000 0.000000 0.000000 21.846611 0.295117 0.805199 56.106341 5.058237 -6.148794 -3.123555 31.026804 1.289768 0.000000 0.000000 0.000000 
0.010539 0.902085 0.124031 -0.229142 20.153849 -5.044257 -5.176933 0.566170 4.383578 0.141684 -1.435282 18.036146 -3.481221 -20.130692 -11.215587 0.000000 0.000000 0.000000 -5.683267 -0.174553 -25.666593 1.482244 -0.256141 9.020624 11.039279 15.214187 16.251877 0.000000 0.000000 0.000000 1.857019 -1.364637 16.206329 1.095873 0.768648 -23.154442 -2.329674 -6.161023 27.987165 -0.179362 2.703677 -27.511497 0.000000 0.000000 0.000000 -26.586924 -2.855424 -2.276289 -53.451792 -11.932772 -3.081417 -0.629513 -26.251342 1.242070 0.000000 0.000000 0.000000 21.954839 -0.032292 0.866361 57.122164 4.084659 -6.729860 -2.982040 31.151242 1.418043 0.000000 0.000000 0.000000 
0.014147 0.901806 0.150811 -0.272924 22.341950 -4.808497 -4.671645 0.683567 6.151371 1.168104 -1.652663 17.332294 -4.504921 -22.421039 -10.606467 0.000000 0.000000 0.000000 -4.978287 -0.113652 -24.734642 2.767845 -0.647183 9.902143 18.413752 21.616547 24.518172 0.000000 0.000000 0.000000 1.691531 -1.210666 14.746290 0.704021 0.918157 -22.829761 -2.618275 -5.736031 28.458438 0.235300 2.777750 -27.097996 0.000000 0.000000 0.000000 -26.148801 -3.832897 -2.381615 -54.226341 -11.648022 -3.073725 -0.736569 -25.118758 1.096497 0.000000 0.000000 0.000000 23.084321 -0.983489 0.991807 57.327654 4.259056 -6.872396 -3.578622 30.621303 1.415028 0.000000 0.000000 0.000000 
0.018645 0.903994 0.177524 -0.643928 26.205706 -3.454282 -3.347623 0.577349 6.368956 2.257250 -1.879872 16.529319 -6.809742 -26.099512 -8.443405 0.000000 0.000000 0.000000 -3.482857 -0.035010 -25.275269 1.964609 -0.688026 12.480162 24.621220 26.162753 29.903103 0.000000 0.000000 0.000000 2.064316 -1.050027 12.491734 0.469357 1.066178 -22.476826 -2.478963 -5.107562 28.218985 0.521358 3.187552 -27.327939 0.000000 0.000000 0.000000 -25.561102 -4.755610 -3.103206 -54.908291 -9.859623 -3.520129 -1.271644 -25.739564 1.003230 0.000000 0.000000 0.000000 24.586409 -1.971624 1.563150 57.000069 4.017804 -7.183502 -3.484107 30.434552 1.631175 0.000000 0.000000 0.000000 
0.023512 0.908174 0.202001 -1.247859 30.554280 -1.437448 -2.792503 0.502518 6.514075 5.520881 -2.175695 13.625928 -9.421420 -29.610092 -5.923035 0.000000 0.000000 0.000000 -2.452440 -0.223058 -26.716185 1.141056 -0.733888 14.223423 30.332933 29.480812 34.227975 0.000000 0.000000 0.000000 2.812258 -0.843702 9.641246 0.911319 1.053574 -21.759497 -2.934999 -5.035260 27.873609 1.092638 3.364565 -27.045613 0.000000 0.000000 0.000000 -26.233759 -5.655642 -4.112884 -53.805826 -6.835470 -4.213027 -2.855287 -27.992231 1.178021 0.000000 0.000000 0.000000 26.044819 -2.176332 2.664303 55.988684 5.185880 -6.848909 -3.867768 30.448538 1.677620 0.000000 0.000000 0.000000 
